<?xml version="1.0" encoding="UTF-8"?><!DOCTYPE svg  PUBLIC '-//W3C//DTD SVG 1.1//EN'  'http://www.w3.org/Graphics/SVG/1.1/DTD/svg11.dtd'><svg xmlns="http://www.w3.org/2000/svg" width="302.4" height="302.4"><path d="M272 0c16.8 0 30.3 13.6 30.3 30.3v241.7c0 16.8-13.5 30.4-30.2 30.4h-241.3c-17.1 0-30.8-13.6-30.8-30.4v-241.6c0-16.8 13.5-30.4 30.2-30.4zm-208 179.3v-107.3h32.4v107.3zm-40.8-149h113v32.4h-113zm68 188.5h-11.2l-8 33.5-9.7-33.5h-7.8l-9.7 33.5-8.3-33.5h-10.8l14.3 53.2h8.6l9.8-32.3 9.8 32.3h8.6zm180.4 52.6v-53.2h-10.4v32.6l-21-32.6h-9.2v53.2h10v-32.7l21 32.7zm-74.4 0v-9.4h-24.7v-12.8h21v-9.2h-21v-12.5h24.7v-9.3h-35v53.2zm-70.7 0v-53.2h-10.3v53.2zm80-91.2l-1.7-.2c-30.3-3-53.7-28.7-53.7-59.8v-89.8h33v89c0 13 9 24.7 21.6 27.8l1.5.3zm9.8-32.7c.5 0 .8-.2 1.3-.3 12.2-3 21.2-14.8 21.2-27.8l-.3-89h33v89.6c0 31-23.6 56.8-54 60l-1.2.2v-32.7" fill="#0f6cb1" fill-rule="evenodd"/></svg>